<svg width="20" height="20" viewBox="0 0 20 20" fill="none" xmlns="http://www.w3.org/2000/svg">
<g clip-path="url(#clip0_9746_168991)">
<path d="M11.6655 1.66602C13.1905 1.66529 14.6696 2.1874 15.8562 3.14529C17.0428 4.10317 17.8651 5.43891 18.1861 6.92974C18.507 8.42057 18.3071 9.97636 17.6197 11.3376C16.9323 12.6989 15.799 13.7834 14.4088 14.4102C13.9645 15.3926 13.2884 16.2526 12.4387 16.9164C11.589 17.5802 10.591 18.0279 9.53019 18.2213C8.46942 18.4147 7.37758 18.3479 6.3483 18.0266C5.31902 17.7053 4.38303 17.1392 3.62059 16.3768C2.85815 15.6143 2.29202 14.6783 1.97076 13.649C1.64949 12.6198 1.58268 11.5279 1.77605 10.4672C1.96941 9.40639 2.41719 8.40835 3.08097 7.55863C3.74476 6.70892 4.60474 6.03289 5.58716 5.58852C6.11562 4.41926 6.97015 3.42727 8.04829 2.73152C9.12642 2.03578 10.3824 1.66582 11.6655 1.66602ZM8.33216 6.66602C7.67556 6.66602 7.02538 6.79535 6.41875 7.04662C5.81212 7.29789 5.26092 7.66619 4.79663 8.13048C4.33234 8.59478 3.96404 9.14597 3.71277 9.7526C3.46149 10.3592 3.33216 11.0094 3.33216 11.666C3.33216 12.3226 3.46149 12.9728 3.71277 13.5794C3.96404 14.1861 4.33234 14.7373 4.79663 15.2016C5.26092 15.6658 5.81212 16.0341 6.41875 16.2854C7.02538 16.5367 7.67556 16.666 8.33216 16.666C9.65825 16.666 10.93 16.1392 11.8677 15.2016C12.8054 14.2639 13.3322 12.9921 13.3322 11.666C13.3322 10.3399 12.8054 9.06816 11.8677 8.13048C10.93 7.1928 9.65825 6.66602 8.33216 6.66602ZM9.1655 7.49935V8.33268H10.8322V9.99935H7.49883C7.39471 9.99916 7.29429 10.038 7.21735 10.1081C7.1404 10.1783 7.09251 10.2747 7.0831 10.3784C7.07369 10.4821 7.10345 10.5855 7.16651 10.6684C7.22958 10.7512 7.32137 10.8075 7.42383 10.826L7.49883 10.8327H9.1655C9.71803 10.8327 10.2479 11.0522 10.6386 11.4429C11.0293 11.8336 11.2488 12.3635 11.2488 12.916C11.2488 13.4686 11.0293 13.9985 10.6386 14.3892C10.2479 14.7799 9.71803 14.9993 9.1655 14.9993V15.8327H7.49883V14.9993H5.83216V13.3327H9.1655C9.26962 13.3329 9.37004 13.2941 9.44698 13.2239C9.52393 13.1538 9.57182 13.0574 9.58123 12.9537C9.59064 12.85 9.56088 12.7465 9.49781 12.6637C9.43475 12.5808 9.34295 12.5246 9.2405 12.506L9.1655 12.4994H7.49883C6.9463 12.4994 6.41639 12.2799 6.02569 11.8892C5.63499 11.4985 5.4155 10.9686 5.4155 10.416C5.4155 9.86348 5.63499 9.33358 6.02569 8.94288C6.41639 8.55218 6.9463 8.33268 7.49883 8.33268V7.49935H9.1655ZM11.6655 3.33268C10.9594 3.33186 10.2612 3.48097 9.61702 3.77015C8.97285 4.05933 8.39744 4.482 7.92883 5.01018C8.87072 4.953 9.81401 5.09643 10.6963 5.43097C11.5787 5.76551 12.3799 6.28355 13.0471 6.95083C13.7143 7.61811 14.2323 8.41943 14.5667 9.30179C14.9011 10.1842 15.0445 11.1275 14.9872 12.0694C15.7448 11.3957 16.2798 10.5076 16.5212 9.52294C16.7625 8.53825 16.6988 7.50345 16.3385 6.55578C15.9782 5.60812 15.3384 4.79238 14.5038 4.21675C13.6692 3.64112 12.6793 3.3328 11.6655 3.33268Z" fill="#777E91"/>
</g>
<defs>
<clipPath id="clip0_9746_168991">
<rect width="20" height="20" fill="white"/>
</clipPath>
</defs>
</svg>
