<svg width="20" height="20" viewBox="0 0 20 20" fill="none" xmlns="http://www.w3.org/2000/svg">
<g clip-path="url(#clip0_9746_168979)">
<path d="M3.67298 12.1018L6.50798 9.26685L8.86464 11.6243L11.4955 8.99352L10.0013 7.49935H14.168V11.666L12.6738 10.1718L8.86464 13.981L6.50798 11.6243L4.44548 13.686C5.38165 15.0951 6.81849 16.0955 8.46484 16.4846C10.1112 16.8738 11.8439 16.6224 13.3118 15.7816C14.7798 14.9408 15.8731 13.5733 16.3704 11.9564C16.8677 10.3394 16.7316 8.59385 15.9898 7.07346C15.2481 5.55307 13.956 4.37154 12.3755 3.7683C10.795 3.16507 9.0443 3.18524 7.47813 3.82474C5.91196 4.46424 4.64748 5.67523 3.94092 7.21231C3.23436 8.7494 3.13858 10.4976 3.67298 12.1027V12.1018ZM2.39131 13.4002L2.38298 13.3918L2.38631 13.3885C1.91125 12.3219 1.66648 11.167 1.66798 9.99935C1.66798 5.39685 5.39881 1.66602 10.0013 1.66602C14.6038 1.66602 18.3346 5.39685 18.3346 9.99935C18.3346 14.6018 14.6038 18.3327 10.0013 18.3327C6.60964 18.3327 3.69298 16.3077 2.39131 13.4002Z" fill="#777E91"/>
</g>
<defs>
<clipPath id="clip0_9746_168979">
<rect width="20" height="20" fill="white"/>
</clipPath>
</defs>
</svg>
